<?xml version="1.0" encoding="utf-8" standalone="no"?>
<!DOCTYPE svg PUBLIC "-//W3C//DTD SVG 1.1//EN"
  "http://www.w3.org/Graphics/SVG/1.1/DTD/svg11.dtd">
<svg xmlns:xlink="http://www.w3.org/1999/xlink" width="1152pt" height="648pt" viewBox="0 0 1152 648" xmlns="http://www.w3.org/2000/svg" version="1.1">
 <metadata>
  <rdf:RDF xmlns:dc="http://purl.org/dc/elements/1.1/" xmlns:cc="http://creativecommons.org/ns#" xmlns:rdf="http://www.w3.org/1999/02/22-rdf-syntax-ns#">
   <cc:Work>
    <dc:type rdf:resource="http://purl.org/dc/dcmitype/StillImage"/>
    <dc:date>2022-05-15T19:26:52.865118</dc:date>
    <dc:format>image/svg+xml</dc:format>
    <dc:creator>
     <cc:Agent>
      <dc:title>Matplotlib v3.5.1, https://matplotlib.org/</dc:title>
     </cc:Agent>
    </dc:creator>
   </cc:Work>
  </rdf:RDF>
 </metadata>
 <defs>
  <style type="text/css">*{stroke-linejoin: round; stroke-linecap: butt}</style>
 </defs>
 <g id="figure_1">
  <g id="patch_1">
   <path d="M 0 648 
L 1152 648 
L 1152 0 
L 0 0 
z
" style="fill: #ffffff"/>
  </g>
  <g id="axes_1">
   <g id="patch_2">
    <path d="M 144 576.72 
L 1036.8 576.72 
L 1036.8 77.76 
L 144 77.76 
z
" style="fill: #ffffff"/>
   </g>
   <g id="matplotlib.axis_1">
    <g id="xtick_1">
     <g id="line2d_1">
      <path d="M 170.82527 576.72 
L 170.82527 77.76 
" clip-path="url(#p29b5617740)" style="fill: none; stroke: #b0b0b0; stroke-width: 0.8; stroke-linecap: square"/>
     </g>
     <g id="line2d_2">
      <defs>
       <path id="m4bfa848f33" d="M 0 0 
L 0 3.5 
" style="stroke: #000000; stroke-width: 0.8"/>
      </defs>
      <g>
       <use xlink:href="#m4bfa848f33" x="170.82527" y="576.72" style="stroke: #000000; stroke-width: 0.8"/>
      </g>
     </g>
     <g id="text_1">
      <!-- 0 -->
      <g transform="translate(167.64402 591.318438)scale(0.1 -0.1)">
       <defs>
        <path id="DejaVuSans-30" d="M 2034 4250 
Q 1547 4250 1301 3770 
Q 1056 3291 1056 2328 
Q 1056 1369 1301 889 
Q 1547 409 2034 409 
Q 2525 409 2770 889 
Q 3016 1369 3016 2328 
Q 3016 3291 2770 3770 
Q 2525 4250 2034 4250 
z
M 2034 4750 
Q 2819 4750 3233 4129 
Q 3647 3509 3647 2328 
Q 3647 1150 3233 529 
Q 2819 -91 2034 -91 
Q 1250 -91 836 529 
Q 422 1150 422 2328 
Q 422 3509 836 4129 
Q 1250 4750 2034 4750 
z
" transform="scale(0.015625)"/>
       </defs>
       <use xlink:href="#DejaVuSans-30"/>
      </g>
     </g>
    </g>
    <g id="xtick_2">
     <g id="line2d_3">
      <path d="M 225.851464 576.72 
L 225.851464 77.76 
" clip-path="url(#p29b5617740)" style="fill: none; stroke: #b0b0b0; stroke-width: 0.8; stroke-linecap: square"/>
     </g>
     <g id="line2d_4">
      <g>
       <use xlink:href="#m4bfa848f33" x="225.851464" y="576.72" style="stroke: #000000; stroke-width: 0.8"/>
      </g>
     </g>
     <g id="text_2">
      <!-- 200 -->
      <g transform="translate(216.307714 591.318438)scale(0.1 -0.1)">
       <defs>
        <path id="DejaVuSans-32" d="M 1228 531 
L 3431 531 
L 3431 0 
L 469 0 
L 469 531 
Q 828 903 1448 1529 
Q 2069 2156 2228 2338 
Q 2531 2678 2651 2914 
Q 2772 3150 2772 3378 
Q 2772 3750 2511 3984 
Q 2250 4219 1831 4219 
Q 1534 4219 1204 4116 
Q 875 4013 500 3803 
L 500 4441 
Q 881 4594 1212 4672 
Q 1544 4750 1819 4750 
Q 2544 4750 2975 4387 
Q 3406 4025 3406 3419 
Q 3406 3131 3298 2873 
Q 3191 2616 2906 2266 
Q 2828 2175 2409 1742 
Q 1991 1309 1228 531 
z
" transform="scale(0.015625)"/>
       </defs>
       <use xlink:href="#DejaVuSans-32"/>
       <use xlink:href="#DejaVuSans-30" x="63.623047"/>
       <use xlink:href="#DejaVuSans-30" x="127.246094"/>
      </g>
     </g>
    </g>
    <g id="xtick_3">
     <g id="line2d_5">
      <path d="M 280.877658 576.72 
L 280.877658 77.76 
" clip-path="url(#p29b5617740)" style="fill: none; stroke: #b0b0b0; stroke-width: 0.8; stroke-linecap: square"/>
     </g>
     <g id="line2d_6">
      <g>
       <use xlink:href="#m4bfa848f33" x="280.877658" y="576.72" style="stroke: #000000; stroke-width: 0.8"/>
      </g>
     </g>
     <g id="text_3">
      <!-- 400 -->
      <g transform="translate(271.333908 591.318438)scale(0.1 -0.1)">
       <defs>
        <path id="DejaVuSans-34" d="M 2419 4116 
L 825 1625 
L 2419 1625 
L 2419 4116 
z
M 2253 4666 
L 3047 4666 
L 3047 1625 
L 3713 1625 
L 3713 1100 
L 3047 1100 
L 3047 0 
L 2419 0 
L 2419 1100 
L 313 1100 
L 313 1709 
L 2253 4666 
z
" transform="scale(0.015625)"/>
       </defs>
       <use xlink:href="#DejaVuSans-34"/>
       <use xlink:href="#DejaVuSans-30" x="63.623047"/>
       <use xlink:href="#DejaVuSans-30" x="127.246094"/>
      </g>
     </g>
    </g>
    <g id="xtick_4">
     <g id="line2d_7">
      <path d="M 335.903852 576.72 
L 335.903852 77.76 
" clip-path="url(#p29b5617740)" style="fill: none; stroke: #b0b0b0; stroke-width: 0.8; stroke-linecap: square"/>
     </g>
     <g id="line2d_8">
      <g>
       <use xlink:href="#m4bfa848f33" x="335.903852" y="576.72" style="stroke: #000000; stroke-width: 0.8"/>
      </g>
     </g>
     <g id="text_4">
      <!-- 600 -->
      <g transform="translate(326.360102 591.318438)scale(0.1 -0.1)">
       <defs>
        <path id="DejaVuSans-36" d="M 2113 2584 
Q 1688 2584 1439 2293 
Q 1191 2003 1191 1497 
Q 1191 994 1439 701 
Q 1688 409 2113 409 
Q 2538 409 2786 701 
Q 3034 994 3034 1497 
Q 3034 2003 2786 2293 
Q 2538 2584 2113 2584 
z
M 3366 4563 
L 3366 3988 
Q 3128 4100 2886 4159 
Q 2644 4219 2406 4219 
Q 1781 4219 1451 3797 
Q 1122 3375 1075 2522 
Q 1259 2794 1537 2939 
Q 1816 3084 2150 3084 
Q 2853 3084 3261 2657 
Q 3669 2231 3669 1497 
Q 3669 778 3244 343 
Q 2819 -91 2113 -91 
Q 1303 -91 875 529 
Q 447 1150 447 2328 
Q 447 3434 972 4092 
Q 1497 4750 2381 4750 
Q 2619 4750 2861 4703 
Q 3103 4656 3366 4563 
z
" transform="scale(0.015625)"/>
       </defs>
       <use xlink:href="#DejaVuSans-36"/>
       <use xlink:href="#DejaVuSans-30" x="63.623047"/>
       <use xlink:href="#DejaVuSans-30" x="127.246094"/>
      </g>
     </g>
    </g>
    <g id="xtick_5">
     <g id="line2d_9">
      <path d="M 390.930046 576.72 
L 390.930046 77.76 
" clip-path="url(#p29b5617740)" style="fill: none; stroke: #b0b0b0; stroke-width: 0.8; stroke-linecap: square"/>
     </g>
     <g id="line2d_10">
      <g>
       <use xlink:href="#m4bfa848f33" x="390.930046" y="576.72" style="stroke: #000000; stroke-width: 0.8"/>
      </g>
     </g>
     <g id="text_5">
      <!-- 800 -->
      <g transform="translate(381.386296 591.318438)scale(0.1 -0.1)">
       <defs>
        <path id="DejaVuSans-38" d="M 2034 2216 
Q 1584 2216 1326 1975 
Q 1069 1734 1069 1313 
Q 1069 891 1326 650 
Q 1584 409 2034 409 
Q 2484 409 2743 651 
Q 3003 894 3003 1313 
Q 3003 1734 2745 1975 
Q 2488 2216 2034 2216 
z
M 1403 2484 
Q 997 2584 770 2862 
Q 544 3141 544 3541 
Q 544 4100 942 4425 
Q 1341 4750 2034 4750 
Q 2731 4750 3128 4425 
Q 3525 4100 3525 3541 
Q 3525 3141 3298 2862 
Q 3072 2584 2669 2484 
Q 3125 2378 3379 2068 
Q 3634 1759 3634 1313 
Q 3634 634 3220 271 
Q 2806 -91 2034 -91 
Q 1263 -91 848 271 
Q 434 634 434 1313 
Q 434 1759 690 2068 
Q 947 2378 1403 2484 
z
M 1172 3481 
Q 1172 3119 1398 2916 
Q 1625 2713 2034 2713 
Q 2441 2713 2670 2916 
Q 2900 3119 2900 3481 
Q 2900 3844 2670 4047 
Q 2441 4250 2034 4250 
Q 1625 4250 1398 4047 
Q 1172 3844 1172 3481 
z
" transform="scale(0.015625)"/>
       </defs>
       <use xlink:href="#DejaVuSans-38"/>
       <use xlink:href="#DejaVuSans-30" x="63.623047"/>
       <use xlink:href="#DejaVuSans-30" x="127.246094"/>
      </g>
     </g>
    </g>
    <g id="xtick_6">
     <g id="line2d_11">
      <path d="M 445.95624 576.72 
L 445.95624 77.76 
" clip-path="url(#p29b5617740)" style="fill: none; stroke: #b0b0b0; stroke-width: 0.8; stroke-linecap: square"/>
     </g>
     <g id="line2d_12">
      <g>
       <use xlink:href="#m4bfa848f33" x="445.95624" y="576.72" style="stroke: #000000; stroke-width: 0.8"/>
      </g>
     </g>
     <g id="text_6">
      <!-- 1000 -->
      <g transform="translate(433.23124 591.318438)scale(0.1 -0.1)">
       <defs>
        <path id="DejaVuSans-31" d="M 794 531 
L 1825 531 
L 1825 4091 
L 703 3866 
L 703 4441 
L 1819 4666 
L 2450 4666 
L 2450 531 
L 3481 531 
L 3481 0 
L 794 0 
L 794 531 
z
" transform="scale(0.015625)"/>
       </defs>
       <use xlink:href="#DejaVuSans-31"/>
       <use xlink:href="#DejaVuSans-30" x="63.623047"/>
       <use xlink:href="#DejaVuSans-30" x="127.246094"/>
       <use xlink:href="#DejaVuSans-30" x="190.869141"/>
      </g>
     </g>
    </g>
    <g id="xtick_7">
     <g id="line2d_13">
      <path d="M 500.982435 576.72 
L 500.982435 77.76 
" clip-path="url(#p29b5617740)" style="fill: none; stroke: #b0b0b0; stroke-width: 0.8; stroke-linecap: square"/>
     </g>
     <g id="line2d_14">
      <g>
       <use xlink:href="#m4bfa848f33" x="500.982435" y="576.72" style="stroke: #000000; stroke-width: 0.8"/>
      </g>
     </g>
     <g id="text_7">
      <!-- 1200 -->
      <g transform="translate(488.257435 591.318438)scale(0.1 -0.1)">
       <use xlink:href="#DejaVuSans-31"/>
       <use xlink:href="#DejaVuSans-32" x="63.623047"/>
       <use xlink:href="#DejaVuSans-30" x="127.246094"/>
       <use xlink:href="#DejaVuSans-30" x="190.869141"/>
      </g>
     </g>
    </g>
    <g id="xtick_8">
     <g id="line2d_15">
      <path d="M 556.008629 576.72 
L 556.008629 77.76 
" clip-path="url(#p29b5617740)" style="fill: none; stroke: #b0b0b0; stroke-width: 0.8; stroke-linecap: square"/>
     </g>
     <g id="line2d_16">
      <g>
       <use xlink:href="#m4bfa848f33" x="556.008629" y="576.72" style="stroke: #000000; stroke-width: 0.8"/>
      </g>
     </g>
     <g id="text_8">
      <!-- 1400 -->
      <g transform="translate(543.283629 591.318438)scale(0.1 -0.1)">
       <use xlink:href="#DejaVuSans-31"/>
       <use xlink:href="#DejaVuSans-34" x="63.623047"/>
       <use xlink:href="#DejaVuSans-30" x="127.246094"/>
       <use xlink:href="#DejaVuSans-30" x="190.869141"/>
      </g>
     </g>
    </g>
    <g id="xtick_9">
     <g id="line2d_17">
      <path d="M 611.034823 576.72 
L 611.034823 77.76 
" clip-path="url(#p29b5617740)" style="fill: none; stroke: #b0b0b0; stroke-width: 0.8; stroke-linecap: square"/>
     </g>
     <g id="line2d_18">
      <g>
       <use xlink:href="#m4bfa848f33" x="611.034823" y="576.72" style="stroke: #000000; stroke-width: 0.8"/>
      </g>
     </g>
     <g id="text_9">
      <!-- 1600 -->
      <g transform="translate(598.309823 591.318438)scale(0.1 -0.1)">
       <use xlink:href="#DejaVuSans-31"/>
       <use xlink:href="#DejaVuSans-36" x="63.623047"/>
       <use xlink:href="#DejaVuSans-30" x="127.246094"/>
       <use xlink:href="#DejaVuSans-30" x="190.869141"/>
      </g>
     </g>
    </g>
    <g id="xtick_10">
     <g id="line2d_19">
      <path d="M 666.061017 576.72 
L 666.061017 77.76 
" clip-path="url(#p29b5617740)" style="fill: none; stroke: #b0b0b0; stroke-width: 0.8; stroke-linecap: square"/>
     </g>
     <g id="line2d_20">
      <g>
       <use xlink:href="#m4bfa848f33" x="666.061017" y="576.72" style="stroke: #000000; stroke-width: 0.8"/>
      </g>
     </g>
     <g id="text_10">
      <!-- 1800 -->
      <g transform="translate(653.336017 591.318438)scale(0.1 -0.1)">
       <use xlink:href="#DejaVuSans-31"/>
       <use xlink:href="#DejaVuSans-38" x="63.623047"/>
       <use xlink:href="#DejaVuSans-30" x="127.246094"/>
       <use xlink:href="#DejaVuSans-30" x="190.869141"/>
      </g>
     </g>
    </g>
    <g id="xtick_11">
     <g id="line2d_21">
      <path d="M 721.087211 576.72 
L 721.087211 77.76 
" clip-path="url(#p29b5617740)" style="fill: none; stroke: #b0b0b0; stroke-width: 0.8; stroke-linecap: square"/>
     </g>
     <g id="line2d_22">
      <g>
       <use xlink:href="#m4bfa848f33" x="721.087211" y="576.72" style="stroke: #000000; stroke-width: 0.8"/>
      </g>
     </g>
     <g id="text_11">
      <!-- 2000 -->
      <g transform="translate(708.362211 591.318438)scale(0.1 -0.1)">
       <use xlink:href="#DejaVuSans-32"/>
       <use xlink:href="#DejaVuSans-30" x="63.623047"/>
       <use xlink:href="#DejaVuSans-30" x="127.246094"/>
       <use xlink:href="#DejaVuSans-30" x="190.869141"/>
      </g>
     </g>
    </g>
    <g id="xtick_12">
     <g id="line2d_23">
      <path d="M 776.113405 576.72 
L 776.113405 77.76 
" clip-path="url(#p29b5617740)" style="fill: none; stroke: #b0b0b0; stroke-width: 0.8; stroke-linecap: square"/>
     </g>
     <g id="line2d_24">
      <g>
       <use xlink:href="#m4bfa848f33" x="776.113405" y="576.72" style="stroke: #000000; stroke-width: 0.8"/>
      </g>
     </g>
     <g id="text_12">
      <!-- 2200 -->
      <g transform="translate(763.388405 591.318438)scale(0.1 -0.1)">
       <use xlink:href="#DejaVuSans-32"/>
       <use xlink:href="#DejaVuSans-32" x="63.623047"/>
       <use xlink:href="#DejaVuSans-30" x="127.246094"/>
       <use xlink:href="#DejaVuSans-30" x="190.869141"/>
      </g>
     </g>
    </g>
    <g id="xtick_13">
     <g id="line2d_25">
      <path d="M 831.139599 576.72 
L 831.139599 77.76 
" clip-path="url(#p29b5617740)" style="fill: none; stroke: #b0b0b0; stroke-width: 0.8; stroke-linecap: square"/>
     </g>
     <g id="line2d_26">
      <g>
       <use xlink:href="#m4bfa848f33" x="831.139599" y="576.72" style="stroke: #000000; stroke-width: 0.8"/>
      </g>
     </g>
     <g id="text_13">
      <!-- 2400 -->
      <g transform="translate(818.414599 591.318438)scale(0.1 -0.1)">
       <use xlink:href="#DejaVuSans-32"/>
       <use xlink:href="#DejaVuSans-34" x="63.623047"/>
       <use xlink:href="#DejaVuSans-30" x="127.246094"/>
       <use xlink:href="#DejaVuSans-30" x="190.869141"/>
      </g>
     </g>
    </g>
    <g id="xtick_14">
     <g id="line2d_27">
      <path d="M 886.165794 576.72 
L 886.165794 77.76 
" clip-path="url(#p29b5617740)" style="fill: none; stroke: #b0b0b0; stroke-width: 0.8; stroke-linecap: square"/>
     </g>
     <g id="line2d_28">
      <g>
       <use xlink:href="#m4bfa848f33" x="886.165794" y="576.72" style="stroke: #000000; stroke-width: 0.8"/>
      </g>
     </g>
     <g id="text_14">
      <!-- 2600 -->
      <g transform="translate(873.440794 591.318438)scale(0.1 -0.1)">
       <use xlink:href="#DejaVuSans-32"/>
       <use xlink:href="#DejaVuSans-36" x="63.623047"/>
       <use xlink:href="#DejaVuSans-30" x="127.246094"/>
       <use xlink:href="#DejaVuSans-30" x="190.869141"/>
      </g>
     </g>
    </g>
    <g id="xtick_15">
     <g id="line2d_29">
      <path d="M 941.191988 576.72 
L 941.191988 77.76 
" clip-path="url(#p29b5617740)" style="fill: none; stroke: #b0b0b0; stroke-width: 0.8; stroke-linecap: square"/>
     </g>
     <g id="line2d_30">
      <g>
       <use xlink:href="#m4bfa848f33" x="941.191988" y="576.72" style="stroke: #000000; stroke-width: 0.8"/>
      </g>
     </g>
     <g id="text_15">
      <!-- 2800 -->
      <g transform="translate(928.466988 591.318438)scale(0.1 -0.1)">
       <use xlink:href="#DejaVuSans-32"/>
       <use xlink:href="#DejaVuSans-38" x="63.623047"/>
       <use xlink:href="#DejaVuSans-30" x="127.246094"/>
       <use xlink:href="#DejaVuSans-30" x="190.869141"/>
      </g>
     </g>
    </g>
    <g id="xtick_16">
     <g id="line2d_31">
      <path d="M 996.218182 576.72 
L 996.218182 77.76 
" clip-path="url(#p29b5617740)" style="fill: none; stroke: #b0b0b0; stroke-width: 0.8; stroke-linecap: square"/>
     </g>
     <g id="line2d_32">
      <g>
       <use xlink:href="#m4bfa848f33" x="996.218182" y="576.72" style="stroke: #000000; stroke-width: 0.8"/>
      </g>
     </g>
     <g id="text_16">
      <!-- 3000 -->
      <g transform="translate(983.493182 591.318438)scale(0.1 -0.1)">
       <defs>
        <path id="DejaVuSans-33" d="M 2597 2516 
Q 3050 2419 3304 2112 
Q 3559 1806 3559 1356 
Q 3559 666 3084 287 
Q 2609 -91 1734 -91 
Q 1441 -91 1130 -33 
Q 819 25 488 141 
L 488 750 
Q 750 597 1062 519 
Q 1375 441 1716 441 
Q 2309 441 2620 675 
Q 2931 909 2931 1356 
Q 2931 1769 2642 2001 
Q 2353 2234 1838 2234 
L 1294 2234 
L 1294 2753 
L 1863 2753 
Q 2328 2753 2575 2939 
Q 2822 3125 2822 3475 
Q 2822 3834 2567 4026 
Q 2313 4219 1838 4219 
Q 1578 4219 1281 4162 
Q 984 4106 628 3988 
L 628 4550 
Q 988 4650 1302 4700 
Q 1616 4750 1894 4750 
Q 2613 4750 3031 4423 
Q 3450 4097 3450 3541 
Q 3450 3153 3228 2886 
Q 3006 2619 2597 2516 
z
" transform="scale(0.015625)"/>
       </defs>
       <use xlink:href="#DejaVuSans-33"/>
       <use xlink:href="#DejaVuSans-30" x="63.623047"/>
       <use xlink:href="#DejaVuSans-30" x="127.246094"/>
       <use xlink:href="#DejaVuSans-30" x="190.869141"/>
      </g>
     </g>
    </g>
    <g id="text_17">
     <!-- Количество строк матрицы -->
     <g transform="translate(518.030469 604.996562)scale(0.1 -0.1)">
      <defs>
       <path id="DejaVuSans-41a" d="M 628 4666 
L 1259 4666 
L 1259 2359 
L 3516 4666 
L 4325 4666 
L 2522 2822 
L 4419 0 
L 3731 0 
L 2113 2403 
L 1259 1531 
L 1259 0 
L 628 0 
L 628 4666 
z
" transform="scale(0.015625)"/>
       <path id="DejaVuSans-43e" d="M 1959 3097 
Q 1497 3097 1228 2736 
Q 959 2375 959 1747 
Q 959 1119 1226 758 
Q 1494 397 1959 397 
Q 2419 397 2687 759 
Q 2956 1122 2956 1747 
Q 2956 2369 2687 2733 
Q 2419 3097 1959 3097 
z
M 1959 3584 
Q 2709 3584 3137 3096 
Q 3566 2609 3566 1747 
Q 3566 888 3137 398 
Q 2709 -91 1959 -91 
Q 1206 -91 779 398 
Q 353 888 353 1747 
Q 353 2609 779 3096 
Q 1206 3584 1959 3584 
z
" transform="scale(0.015625)"/>
       <path id="DejaVuSans-43b" d="M 238 0 
L 238 478 
Q 806 566 981 959 
Q 1194 1513 1194 2928 
L 1194 3500 
L 3559 3500 
L 3559 0 
L 2984 0 
L 2984 3041 
L 1769 3041 
L 1769 2694 
Q 1769 1344 1494 738 
Q 1200 91 238 0 
z
" transform="scale(0.015625)"/>
       <path id="DejaVuSans-438" d="M 3578 3500 
L 3578 0 
L 3006 0 
L 3006 2809 
L 1319 0 
L 581 0 
L 581 3500 
L 1153 3500 
L 1153 697 
L 2838 3500 
L 3578 3500 
z
" transform="scale(0.015625)"/>
       <path id="DejaVuSans-447" d="M 2625 0 
L 2625 1472 
L 1553 1472 
Q 1075 1472 756 1769 
Q 469 2038 469 2613 
L 469 3500 
L 1044 3500 
L 1044 2666 
Q 1044 2300 1206 2116 
Q 1372 1931 1697 1931 
L 2625 1931 
L 2625 3500 
L 3200 3500 
L 3200 0 
L 2625 0 
z
" transform="scale(0.015625)"/>
       <path id="DejaVuSans-435" d="M 3597 1894 
L 3597 1613 
L 953 1613 
Q 991 1019 1311 708 
Q 1631 397 2203 397 
Q 2534 397 2845 478 
Q 3156 559 3463 722 
L 3463 178 
Q 3153 47 2828 -22 
Q 2503 -91 2169 -91 
Q 1331 -91 842 396 
Q 353 884 353 1716 
Q 353 2575 817 3079 
Q 1281 3584 2069 3584 
Q 2775 3584 3186 3129 
Q 3597 2675 3597 1894 
z
M 3022 2063 
Q 3016 2534 2758 2815 
Q 2500 3097 2075 3097 
Q 1594 3097 1305 2825 
Q 1016 2553 972 2059 
L 3022 2063 
z
" transform="scale(0.015625)"/>
       <path id="DejaVuSans-441" d="M 3122 3366 
L 3122 2828 
Q 2878 2963 2633 3030 
Q 2388 3097 2138 3097 
Q 1578 3097 1268 2742 
Q 959 2388 959 1747 
Q 959 1106 1268 751 
Q 1578 397 2138 397 
Q 2388 397 2633 464 
Q 2878 531 3122 666 
L 3122 134 
Q 2881 22 2623 -34 
Q 2366 -91 2075 -91 
Q 1284 -91 818 406 
Q 353 903 353 1747 
Q 353 2603 823 3093 
Q 1294 3584 2113 3584 
Q 2378 3584 2631 3529 
Q 2884 3475 3122 3366 
z
" transform="scale(0.015625)"/>
       <path id="DejaVuSans-442" d="M 188 3500 
L 3541 3500 
L 3541 3041 
L 2147 3041 
L 2147 0 
L 1581 0 
L 1581 3041 
L 188 3041 
L 188 3500 
z
" transform="scale(0.015625)"/>
       <path id="DejaVuSans-432" d="M 1156 1613 
L 1156 459 
L 1975 459 
Q 2369 459 2575 607 
Q 2781 756 2781 1038 
Q 2781 1319 2575 1466 
Q 2369 1613 1975 1613 
L 1156 1613 
z
M 1156 3041 
L 1156 2072 
L 1913 2072 
Q 2238 2072 2444 2201 
Q 2650 2331 2650 2563 
Q 2650 2794 2444 2917 
Q 2238 3041 1913 3041 
L 1156 3041 
z
M 581 3500 
L 1950 3500 
Q 2566 3500 2897 3275 
Q 3228 3050 3228 2634 
Q 3228 2313 3059 2123 
Q 2891 1934 2559 1888 
Q 2956 1813 3175 1575 
Q 3394 1338 3394 981 
Q 3394 513 3033 256 
Q 2672 0 2003 0 
L 581 0 
L 581 3500 
z
" transform="scale(0.015625)"/>
       <path id="DejaVuSans-20" transform="scale(0.015625)"/>
       <path id="DejaVuSans-440" d="M 1159 525 
L 1159 -1331 
L 581 -1331 
L 581 3500 
L 1159 3500 
L 1159 2969 
Q 1341 3281 1617 3432 
Q 1894 3584 2278 3584 
Q 2916 3584 3314 3078 
Q 3713 2572 3713 1747 
Q 3713 922 3314 415 
Q 2916 -91 2278 -91 
Q 1894 -91 1617 61 
Q 1341 213 1159 525 
z
M 3116 1747 
Q 3116 2381 2855 2742 
Q 2594 3103 2138 3103 
Q 1681 3103 1420 2742 
Q 1159 2381 1159 1747 
Q 1159 1113 1420 752 
Q 1681 391 2138 391 
Q 2594 391 2855 752 
Q 3116 1113 3116 1747 
z
" transform="scale(0.015625)"/>
       <path id="DejaVuSans-43a" d="M 581 3500 
L 1153 3500 
L 1153 1856 
L 2775 3500 
L 3481 3500 
L 2144 2147 
L 3653 0 
L 3009 0 
L 1769 1766 
L 1153 1141 
L 1153 0 
L 581 0 
L 581 3500 
z
" transform="scale(0.015625)"/>
       <path id="DejaVuSans-43c" d="M 581 3500 
L 1422 3500 
L 2416 1156 
L 3413 3500 
L 4247 3500 
L 4247 0 
L 3669 0 
L 3669 2950 
L 2703 672 
L 2128 672 
L 1159 2950 
L 1159 0 
L 581 0 
L 581 3500 
z
" transform="scale(0.015625)"/>
       <path id="DejaVuSans-430" d="M 2194 1759 
Q 1497 1759 1228 1600 
Q 959 1441 959 1056 
Q 959 750 1161 570 
Q 1363 391 1709 391 
Q 2188 391 2477 730 
Q 2766 1069 2766 1631 
L 2766 1759 
L 2194 1759 
z
M 3341 1997 
L 3341 0 
L 2766 0 
L 2766 531 
Q 2569 213 2275 61 
Q 1981 -91 1556 -91 
Q 1019 -91 701 211 
Q 384 513 384 1019 
Q 384 1609 779 1909 
Q 1175 2209 1959 2209 
L 2766 2209 
L 2766 2266 
Q 2766 2663 2505 2880 
Q 2244 3097 1772 3097 
Q 1472 3097 1187 3025 
Q 903 2953 641 2809 
L 641 3341 
Q 956 3463 1253 3523 
Q 1550 3584 1831 3584 
Q 2591 3584 2966 3190 
Q 3341 2797 3341 1997 
z
" transform="scale(0.015625)"/>
       <path id="DejaVuSans-446" d="M 3603 0 
L 581 0 
L 581 3500 
L 1159 3500 
L 1159 459 
L 3025 459 
L 3025 3500 
L 3603 3500 
L 3603 459 
L 4063 459 
L 4063 -884 
L 3603 -884 
L 3603 0 
z
" transform="scale(0.015625)"/>
       <path id="DejaVuSans-44b" d="M 3907 3500 
L 4482 3500 
L 4482 0 
L 3907 0 
L 3907 3500 
z
M 4195 3584 
L 4195 3584 
z
M 2781 1038 
Q 2781 1319 2576 1466 
Q 2372 1613 1978 1613 
L 1159 1613 
L 1159 459 
L 1978 459 
Q 2372 459 2576 607 
Q 2781 756 2781 1038 
z
M 581 3500 
L 1159 3500 
L 1159 2072 
L 2003 2072 
Q 2672 2072 3033 1817 
Q 3394 1563 3394 1038 
Q 3394 513 3033 256 
Q 2672 0 2003 0 
L 581 0 
L 581 3500 
z
" transform="scale(0.015625)"/>
      </defs>
      <use xlink:href="#DejaVuSans-41a"/>
      <use xlink:href="#DejaVuSans-43e" x="70.996094"/>
      <use xlink:href="#DejaVuSans-43b" x="132.177734"/>
      <use xlink:href="#DejaVuSans-438" x="196.09375"/>
      <use xlink:href="#DejaVuSans-447" x="261.083984"/>
      <use xlink:href="#DejaVuSans-435" x="320.166016"/>
      <use xlink:href="#DejaVuSans-441" x="381.689453"/>
      <use xlink:href="#DejaVuSans-442" x="436.669922"/>
      <use xlink:href="#DejaVuSans-432" x="494.921875"/>
      <use xlink:href="#DejaVuSans-43e" x="553.857422"/>
      <use xlink:href="#DejaVuSans-20" x="615.039062"/>
      <use xlink:href="#DejaVuSans-441" x="646.826172"/>
      <use xlink:href="#DejaVuSans-442" x="701.806641"/>
      <use xlink:href="#DejaVuSans-440" x="760.058594"/>
      <use xlink:href="#DejaVuSans-43e" x="823.535156"/>
      <use xlink:href="#DejaVuSans-43a" x="884.716797"/>
      <use xlink:href="#DejaVuSans-20" x="945.117188"/>
      <use xlink:href="#DejaVuSans-43c" x="976.904297"/>
      <use xlink:href="#DejaVuSans-430" x="1052.34375"/>
      <use xlink:href="#DejaVuSans-442" x="1113.623047"/>
      <use xlink:href="#DejaVuSans-440" x="1171.875"/>
      <use xlink:href="#DejaVuSans-438" x="1235.351562"/>
      <use xlink:href="#DejaVuSans-446" x="1300.341797"/>
      <use xlink:href="#DejaVuSans-44b" x="1368.408203"/>
     </g>
    </g>
   </g>
   <g id="matplotlib.axis_2">
    <g id="ytick_1">
     <g id="line2d_33">
      <path d="M 144 554.04 
L 1036.8 554.04 
" clip-path="url(#p29b5617740)" style="fill: none; stroke: #b0b0b0; stroke-width: 0.8; stroke-linecap: square"/>
     </g>
     <g id="line2d_34">
      <defs>
       <path id="me5392e0cbf" d="M 0 0 
L -3.5 0 
" style="stroke: #000000; stroke-width: 0.8"/>
      </defs>
      <g>
       <use xlink:href="#me5392e0cbf" x="144" y="554.04" style="stroke: #000000; stroke-width: 0.8"/>
      </g>
     </g>
     <g id="text_18">
      <!-- 0 -->
      <g transform="translate(130.6375 557.839219)scale(0.1 -0.1)">
       <use xlink:href="#DejaVuSans-30"/>
      </g>
     </g>
    </g>
    <g id="ytick_2">
     <g id="line2d_35">
      <path d="M 144 454.97907 
L 1036.8 454.97907 
" clip-path="url(#p29b5617740)" style="fill: none; stroke: #b0b0b0; stroke-width: 0.8; stroke-linecap: square"/>
     </g>
     <g id="line2d_36">
      <g>
       <use xlink:href="#me5392e0cbf" x="144" y="454.97907" style="stroke: #000000; stroke-width: 0.8"/>
      </g>
     </g>
     <g id="text_19">
      <!-- 5000 -->
      <g transform="translate(111.55 458.778288)scale(0.1 -0.1)">
       <defs>
        <path id="DejaVuSans-35" d="M 691 4666 
L 3169 4666 
L 3169 4134 
L 1269 4134 
L 1269 2991 
Q 1406 3038 1543 3061 
Q 1681 3084 1819 3084 
Q 2600 3084 3056 2656 
Q 3513 2228 3513 1497 
Q 3513 744 3044 326 
Q 2575 -91 1722 -91 
Q 1428 -91 1123 -41 
Q 819 9 494 109 
L 494 744 
Q 775 591 1075 516 
Q 1375 441 1709 441 
Q 2250 441 2565 725 
Q 2881 1009 2881 1497 
Q 2881 1984 2565 2268 
Q 2250 2553 1709 2553 
Q 1456 2553 1204 2497 
Q 953 2441 691 2322 
L 691 4666 
z
" transform="scale(0.015625)"/>
       </defs>
       <use xlink:href="#DejaVuSans-35"/>
       <use xlink:href="#DejaVuSans-30" x="63.623047"/>
       <use xlink:href="#DejaVuSans-30" x="127.246094"/>
       <use xlink:href="#DejaVuSans-30" x="190.869141"/>
      </g>
     </g>
    </g>
    <g id="ytick_3">
     <g id="line2d_37">
      <path d="M 144 355.918139 
L 1036.8 355.918139 
" clip-path="url(#p29b5617740)" style="fill: none; stroke: #b0b0b0; stroke-width: 0.8; stroke-linecap: square"/>
     </g>
     <g id="line2d_38">
      <g>
       <use xlink:href="#me5392e0cbf" x="144" y="355.918139" style="stroke: #000000; stroke-width: 0.8"/>
      </g>
     </g>
     <g id="text_20">
      <!-- 10000 -->
      <g transform="translate(105.1875 359.717358)scale(0.1 -0.1)">
       <use xlink:href="#DejaVuSans-31"/>
       <use xlink:href="#DejaVuSans-30" x="63.623047"/>
       <use xlink:href="#DejaVuSans-30" x="127.246094"/>
       <use xlink:href="#DejaVuSans-30" x="190.869141"/>
       <use xlink:href="#DejaVuSans-30" x="254.492188"/>
      </g>
     </g>
    </g>
    <g id="ytick_4">
     <g id="line2d_39">
      <path d="M 144 256.857209 
L 1036.8 256.857209 
" clip-path="url(#p29b5617740)" style="fill: none; stroke: #b0b0b0; stroke-width: 0.8; stroke-linecap: square"/>
     </g>
     <g id="line2d_40">
      <g>
       <use xlink:href="#me5392e0cbf" x="144" y="256.857209" style="stroke: #000000; stroke-width: 0.8"/>
      </g>
     </g>
     <g id="text_21">
      <!-- 15000 -->
      <g transform="translate(105.1875 260.656428)scale(0.1 -0.1)">
       <use xlink:href="#DejaVuSans-31"/>
       <use xlink:href="#DejaVuSans-35" x="63.623047"/>
       <use xlink:href="#DejaVuSans-30" x="127.246094"/>
       <use xlink:href="#DejaVuSans-30" x="190.869141"/>
       <use xlink:href="#DejaVuSans-30" x="254.492188"/>
      </g>
     </g>
    </g>
    <g id="ytick_5">
     <g id="line2d_41">
      <path d="M 144 157.796279 
L 1036.8 157.796279 
" clip-path="url(#p29b5617740)" style="fill: none; stroke: #b0b0b0; stroke-width: 0.8; stroke-linecap: square"/>
     </g>
     <g id="line2d_42">
      <g>
       <use xlink:href="#me5392e0cbf" x="144" y="157.796279" style="stroke: #000000; stroke-width: 0.8"/>
      </g>
     </g>
     <g id="text_22">
      <!-- 20000 -->
      <g transform="translate(105.1875 161.595497)scale(0.1 -0.1)">
       <use xlink:href="#DejaVuSans-32"/>
       <use xlink:href="#DejaVuSans-30" x="63.623047"/>
       <use xlink:href="#DejaVuSans-30" x="127.246094"/>
       <use xlink:href="#DejaVuSans-30" x="190.869141"/>
       <use xlink:href="#DejaVuSans-30" x="254.492188"/>
      </g>
     </g>
    </g>
    <g id="text_23">
     <!-- Время, мкс -->
     <g transform="translate(99.107812 356.420469)rotate(-90)scale(0.1 -0.1)">
      <defs>
       <path id="DejaVuSans-412" d="M 1259 2228 
L 1259 519 
L 2272 519 
Q 2781 519 3026 730 
Q 3272 941 3272 1375 
Q 3272 1813 3026 2020 
Q 2781 2228 2272 2228 
L 1259 2228 
z
M 1259 4147 
L 1259 2741 
L 2194 2741 
Q 2656 2741 2882 2914 
Q 3109 3088 3109 3444 
Q 3109 3797 2882 3972 
Q 2656 4147 2194 4147 
L 1259 4147 
z
M 628 4666 
L 2241 4666 
Q 2963 4666 3353 4366 
Q 3744 4066 3744 3513 
Q 3744 3084 3544 2831 
Q 3344 2578 2956 2516 
Q 3422 2416 3680 2098 
Q 3938 1781 3938 1306 
Q 3938 681 3513 340 
Q 3088 0 2303 0 
L 628 0 
L 628 4666 
z
" transform="scale(0.015625)"/>
       <path id="DejaVuSans-44f" d="M 1181 2491 
Q 1181 2231 1381 2084 
Q 1581 1938 1953 1938 
L 2728 1938 
L 2728 3041 
L 1953 3041 
Q 1581 3041 1381 2897 
Q 1181 2753 1181 2491 
z
M 363 0 
L 1431 1534 
Q 1069 1616 828 1830 
Q 588 2044 588 2491 
Q 588 2997 923 3248 
Q 1259 3500 1938 3500 
L 3306 3500 
L 3306 0 
L 2728 0 
L 2728 1478 
L 2013 1478 
L 981 0 
L 363 0 
z
" transform="scale(0.015625)"/>
       <path id="DejaVuSans-2c" d="M 750 794 
L 1409 794 
L 1409 256 
L 897 -744 
L 494 -744 
L 750 256 
L 750 794 
z
" transform="scale(0.015625)"/>
      </defs>
      <use xlink:href="#DejaVuSans-412"/>
      <use xlink:href="#DejaVuSans-440" x="68.603516"/>
      <use xlink:href="#DejaVuSans-435" x="132.080078"/>
      <use xlink:href="#DejaVuSans-43c" x="193.603516"/>
      <use xlink:href="#DejaVuSans-44f" x="269.042969"/>
      <use xlink:href="#DejaVuSans-2c" x="329.199219"/>
      <use xlink:href="#DejaVuSans-20" x="360.986328"/>
      <use xlink:href="#DejaVuSans-43c" x="392.773438"/>
      <use xlink:href="#DejaVuSans-43a" x="468.212891"/>
      <use xlink:href="#DejaVuSans-441" x="528.613281"/>
     </g>
    </g>
   </g>
   <g id="line2d_43">
    <path d="M 184.581818 554.020188 
L 198.338367 553.960751 
L 212.094915 553.86169 
L 225.851464 553.723005 
L 239.608012 553.505071 
L 253.364561 553.306949 
L 267.121109 553.009766 
L 280.877658 552.712584 
L 294.634206 552.355964 
L 308.390755 551.979533 
L 322.147304 551.563477 
L 335.903852 551.087984 
L 349.660401 550.553055 
L 363.416949 549.800192 
L 377.173498 549.126578 
L 390.930046 548.135969 
L 404.686595 547.145359 
L 418.443143 545.322638 
L 432.199692 544.688648 
L 445.95624 543.34142 
L 459.712789 542.093252 
L 473.469337 540.746023 
L 487.225886 538.309124 
L 500.982435 537.754383 
L 514.738983 535.773164 
L 528.495532 534.604245 
L 542.25208 532.840961 
L 556.008629 530.166316 
L 569.765177 529.354016 
L 583.521726 527.570919 
L 597.278274 525.114208 
L 611.034823 522.677309 
L 624.791371 521.627264 
L 638.54792 519.467735 
L 652.304468 517.129897 
L 666.061017 512.196663 
L 679.817565 512.771216 
L 693.574114 509.938074 
L 707.330663 507.560611 
L 721.087211 505.242586 
L 734.84376 492.622223 
L 748.600308 499.972544 
L 762.356857 494.088325 
L 776.113405 493.59302 
L 789.869954 488.560725 
L 803.626502 481.150967 
L 817.383051 479.665054 
L 831.139599 478.773505 
L 844.896148 476.713038 
L 858.652696 474.177078 
L 872.409245 465.182345 
L 886.165794 468.411732 
L 899.922342 460.744416 
L 913.678891 454.642263 
L 927.435439 459.496248 
L 941.191988 456.326298 
L 954.948536 440.793544 
L 968.705085 441.110539 
L 982.461633 442.774763 
L 996.218182 430.411959 
" clip-path="url(#p29b5617740)" style="fill: none; stroke: #1f77b4; stroke-linecap: square"/>
    <defs>
     <path id="m38ced6698d" d="M 0 3 
C 0.795609 3 1.55874 2.683901 2.12132 2.12132 
C 2.683901 1.55874 3 0.795609 3 0 
C 3 -0.795609 2.683901 -1.55874 2.12132 -2.12132 
C 1.55874 -2.683901 0.795609 -3 0 -3 
C -0.795609 -3 -1.55874 -2.683901 -2.12132 -2.12132 
C -2.683901 -1.55874 -3 -0.795609 -3 0 
C -3 0.795609 -2.683901 1.55874 -2.12132 2.12132 
C -1.55874 2.683901 -0.795609 3 0 3 
z
" style="stroke: #1f77b4"/>
    </defs>
    <g clip-path="url(#p29b5617740)">
     <use xlink:href="#m38ced6698d" x="184.581818" y="554.020188" style="fill: #1f77b4; stroke: #1f77b4"/>
     <use xlink:href="#m38ced6698d" x="253.364561" y="553.306949" style="fill: #1f77b4; stroke: #1f77b4"/>
     <use xlink:href="#m38ced6698d" x="322.147304" y="551.563477" style="fill: #1f77b4; stroke: #1f77b4"/>
     <use xlink:href="#m38ced6698d" x="390.930046" y="548.135969" style="fill: #1f77b4; stroke: #1f77b4"/>
     <use xlink:href="#m38ced6698d" x="459.712789" y="542.093252" style="fill: #1f77b4; stroke: #1f77b4"/>
     <use xlink:href="#m38ced6698d" x="528.495532" y="534.604245" style="fill: #1f77b4; stroke: #1f77b4"/>
     <use xlink:href="#m38ced6698d" x="597.278274" y="525.114208" style="fill: #1f77b4; stroke: #1f77b4"/>
     <use xlink:href="#m38ced6698d" x="666.061017" y="512.196663" style="fill: #1f77b4; stroke: #1f77b4"/>
     <use xlink:href="#m38ced6698d" x="734.84376" y="492.622223" style="fill: #1f77b4; stroke: #1f77b4"/>
     <use xlink:href="#m38ced6698d" x="803.626502" y="481.150967" style="fill: #1f77b4; stroke: #1f77b4"/>
     <use xlink:href="#m38ced6698d" x="872.409245" y="465.182345" style="fill: #1f77b4; stroke: #1f77b4"/>
     <use xlink:href="#m38ced6698d" x="941.191988" y="456.326298" style="fill: #1f77b4; stroke: #1f77b4"/>
    </g>
   </g>
   <g id="line2d_44">
    <path d="M 184.581818 554.020188 
L 198.338367 553.960751 
L 212.094915 553.86169 
L 225.851464 553.723005 
L 239.608012 553.524883 
L 253.364561 553.306949 
L 267.121109 553.049391 
L 280.877658 552.732396 
L 294.634206 552.355964 
L 308.390755 551.999345 
L 322.147304 551.563477 
L 335.903852 551.107796 
L 349.660401 550.572867 
L 363.416949 549.800192 
L 377.173498 549.186014 
L 390.930046 548.175593 
L 404.686595 547.125547 
L 418.443143 545.34245 
L 432.199692 544.688648 
L 445.95624 543.381044 
L 459.712789 542.093252 
L 473.469337 540.746023 
L 487.225886 538.289312 
L 500.982435 537.794007 
L 514.738983 535.753352 
L 528.495532 534.64387 
L 542.25208 532.860773 
L 556.008629 530.186128 
L 569.765177 529.373828 
L 583.521726 527.630356 
L 597.278274 525.134021 
L 611.034823 522.796183 
L 624.791371 521.587639 
L 638.54792 519.566796 
L 652.304468 517.110085 
L 666.061017 512.236287 
L 679.817565 512.71178 
L 693.574114 510.017323 
L 707.330663 507.481363 
L 721.087211 505.361459 
L 734.84376 492.741096 
L 748.600308 500.21029 
L 762.356857 493.929827 
L 776.113405 493.791142 
L 789.869954 488.87772 
L 803.626502 481.269841 
L 817.383051 479.9028 
L 831.139599 478.892378 
L 844.896148 476.792287 
L 858.652696 474.137454 
L 872.409245 464.964411 
L 886.165794 468.332483 
L 899.922342 460.843477 
L 913.678891 454.80076 
L 927.435439 459.813243 
L 941.191988 456.06874 
L 954.948536 442.002088 
L 968.705085 441.942651 
L 982.461633 443.388941 
L 996.218182 430.570456 
" clip-path="url(#p29b5617740)" style="fill: none; stroke: #ff7f0e; stroke-linecap: square"/>
    <defs>
     <path id="me66b819a3f" d="M -0 3 
L 3 -3 
L -3 -3 
z
" style="stroke: #ff7f0e; stroke-linejoin: miter"/>
    </defs>
    <g clip-path="url(#p29b5617740)">
     <use xlink:href="#me66b819a3f" x="184.581818" y="554.020188" style="fill: #ff7f0e; stroke: #ff7f0e; stroke-linejoin: miter"/>
     <use xlink:href="#me66b819a3f" x="253.364561" y="553.306949" style="fill: #ff7f0e; stroke: #ff7f0e; stroke-linejoin: miter"/>
     <use xlink:href="#me66b819a3f" x="322.147304" y="551.563477" style="fill: #ff7f0e; stroke: #ff7f0e; stroke-linejoin: miter"/>
     <use xlink:href="#me66b819a3f" x="390.930046" y="548.175593" style="fill: #ff7f0e; stroke: #ff7f0e; stroke-linejoin: miter"/>
     <use xlink:href="#me66b819a3f" x="459.712789" y="542.093252" style="fill: #ff7f0e; stroke: #ff7f0e; stroke-linejoin: miter"/>
     <use xlink:href="#me66b819a3f" x="528.495532" y="534.64387" style="fill: #ff7f0e; stroke: #ff7f0e; stroke-linejoin: miter"/>
     <use xlink:href="#me66b819a3f" x="597.278274" y="525.134021" style="fill: #ff7f0e; stroke: #ff7f0e; stroke-linejoin: miter"/>
     <use xlink:href="#me66b819a3f" x="666.061017" y="512.236287" style="fill: #ff7f0e; stroke: #ff7f0e; stroke-linejoin: miter"/>
     <use xlink:href="#me66b819a3f" x="734.84376" y="492.741096" style="fill: #ff7f0e; stroke: #ff7f0e; stroke-linejoin: miter"/>
     <use xlink:href="#me66b819a3f" x="803.626502" y="481.269841" style="fill: #ff7f0e; stroke: #ff7f0e; stroke-linejoin: miter"/>
     <use xlink:href="#me66b819a3f" x="872.409245" y="464.964411" style="fill: #ff7f0e; stroke: #ff7f0e; stroke-linejoin: miter"/>
     <use xlink:href="#me66b819a3f" x="941.191988" y="456.06874" style="fill: #ff7f0e; stroke: #ff7f0e; stroke-linejoin: miter"/>
    </g>
   </g>
   <g id="line2d_45">
    <path d="M 184.581818 554.04 
L 198.338367 554.000376 
L 212.094915 553.921127 
L 225.851464 553.841878 
L 239.608012 553.663568 
L 253.364561 553.564508 
L 267.121109 553.346573 
L 280.877658 553.207888 
L 294.634206 552.910705 
L 308.390755 552.712584 
L 322.147304 552.355964 
L 335.903852 552.157842 
L 349.660401 551.702162 
L 363.416949 551.187045 
L 377.173498 550.691741 
L 390.930046 549.938877 
L 404.686595 548.888832 
L 418.443143 547.42273 
L 432.199692 546.689679 
L 445.95624 545.401887 
L 459.712789 544.232968 
L 473.469337 543.16311 
L 487.225886 540.924333 
L 500.982435 540.686587 
L 514.738983 538.645931 
L 528.495532 537.754383 
L 542.25208 535.852413 
L 556.008629 533.078707 
L 569.765177 532.682463 
L 583.521726 531.29561 
L 597.278274 528.601153 
L 611.034823 526.501061 
L 624.791371 525.371767 
L 638.54792 523.667919 
L 652.304468 521.112147 
L 666.061017 515.723232 
L 679.817565 517.011024 
L 693.574114 514.970369 
L 707.330663 512.117414 
L 721.087211 510.136196 
L 734.84376 502.072636 
L 748.600308 505.123713 
L 762.356857 499.239493 
L 776.113405 499.021559 
L 789.869954 493.791142 
L 803.626502 487.669177 
L 817.383051 483.686927 
L 831.139599 485.212466 
L 844.896148 482.042516 
L 858.652696 480.794348 
L 872.409245 470.987316 
L 886.165794 475.28656 
L 899.922342 467.40131 
L 913.678891 462.586949 
L 927.435439 466.76732 
L 941.191988 464.1323 
L 954.948536 449.90715 
L 968.705085 450.699637 
L 982.461633 450.759074 
L 996.218182 437.3066 
" clip-path="url(#p29b5617740)" style="fill: none; stroke: #2ca02c; stroke-linecap: square"/>
    <defs>
     <path id="m0e4dbdd5dc" d="M 0 -3 
L -3 3 
L 3 3 
z
" style="stroke: #2ca02c; stroke-linejoin: miter"/>
    </defs>
    <g clip-path="url(#p29b5617740)">
     <use xlink:href="#m0e4dbdd5dc" x="184.581818" y="554.04" style="fill: #2ca02c; stroke: #2ca02c; stroke-linejoin: miter"/>
     <use xlink:href="#m0e4dbdd5dc" x="253.364561" y="553.564508" style="fill: #2ca02c; stroke: #2ca02c; stroke-linejoin: miter"/>
     <use xlink:href="#m0e4dbdd5dc" x="322.147304" y="552.355964" style="fill: #2ca02c; stroke: #2ca02c; stroke-linejoin: miter"/>
     <use xlink:href="#m0e4dbdd5dc" x="390.930046" y="549.938877" style="fill: #2ca02c; stroke: #2ca02c; stroke-linejoin: miter"/>
     <use xlink:href="#m0e4dbdd5dc" x="459.712789" y="544.232968" style="fill: #2ca02c; stroke: #2ca02c; stroke-linejoin: miter"/>
     <use xlink:href="#m0e4dbdd5dc" x="528.495532" y="537.754383" style="fill: #2ca02c; stroke: #2ca02c; stroke-linejoin: miter"/>
     <use xlink:href="#m0e4dbdd5dc" x="597.278274" y="528.601153" style="fill: #2ca02c; stroke: #2ca02c; stroke-linejoin: miter"/>
     <use xlink:href="#m0e4dbdd5dc" x="666.061017" y="515.723232" style="fill: #2ca02c; stroke: #2ca02c; stroke-linejoin: miter"/>
     <use xlink:href="#m0e4dbdd5dc" x="734.84376" y="502.072636" style="fill: #2ca02c; stroke: #2ca02c; stroke-linejoin: miter"/>
     <use xlink:href="#m0e4dbdd5dc" x="803.626502" y="487.669177" style="fill: #2ca02c; stroke: #2ca02c; stroke-linejoin: miter"/>
     <use xlink:href="#m0e4dbdd5dc" x="872.409245" y="470.987316" style="fill: #2ca02c; stroke: #2ca02c; stroke-linejoin: miter"/>
     <use xlink:href="#m0e4dbdd5dc" x="941.191988" y="464.1323" style="fill: #2ca02c; stroke: #2ca02c; stroke-linejoin: miter"/>
    </g>
   </g>
   <g id="line2d_46">
    <path d="M 184.581818 553.921127 
L 198.338367 553.544695 
L 212.094915 552.930518 
L 225.851464 552.078594 
L 239.608012 550.988923 
L 253.364561 549.661507 
L 267.121109 548.096344 
L 280.877658 546.293435 
L 294.634206 544.272592 
L 308.390755 541.974379 
L 322.147304 539.497855 
L 335.903852 536.704337 
L 349.660401 533.732509 
L 363.416949 530.38425 
L 377.173498 526.837869 
L 390.930046 522.875431 
L 404.686595 518.754497 
L 418.443143 514.197694 
L 432.199692 509.561642 
L 445.95624 504.509535 
L 459.712789 499.279118 
L 473.469337 493.751518 
L 487.225886 488.144669 
L 500.982435 482.101952 
L 514.738983 476.019611 
L 528.495532 469.362717 
L 542.25208 462.765259 
L 556.008629 455.870618 
L 569.765177 448.678794 
L 583.521726 441.031291 
L 597.278274 433.50266 
L 611.034823 426.786329 
L 624.791371 417.296292 
L 638.54792 408.677991 
L 652.304468 400.218187 
L 666.061017 391.183831 
L 679.817565 381.971164 
L 693.574114 372.342442 
L 707.330663 362.654283 
L 721.087211 352.708565 
L 734.84376 342.544914 
L 748.600308 331.648211 
L 762.356857 321.603433 
L 776.113405 310.191614 
L 789.869954 299.136414 
L 803.626502 287.050981 
L 817.383051 276.451461 
L 831.139599 267.575602 
L 844.896148 251.963599 
L 858.652696 238.788495 
L 872.409245 225.771889 
L 886.165794 213.290212 
L 899.922342 200.590601 
L 913.678891 186.860756 
L 927.435439 173.626215 
L 941.191988 158.509517 
L 954.948536 145.076855 
L 968.705085 130.356401 
L 982.461633 114.150033 
L 996.218182 100.44 
" clip-path="url(#p29b5617740)" style="fill: none; stroke: #d62728; stroke-linecap: square"/>
    <defs>
     <path id="mf7c5cc91ee" d="M -3 -0 
L 3 3 
L 3 -3 
z
" style="stroke: #d62728; stroke-linejoin: miter"/>
    </defs>
    <g clip-path="url(#p29b5617740)">
     <use xlink:href="#mf7c5cc91ee" x="184.581818" y="553.921127" style="fill: #d62728; stroke: #d62728; stroke-linejoin: miter"/>
     <use xlink:href="#mf7c5cc91ee" x="253.364561" y="549.661507" style="fill: #d62728; stroke: #d62728; stroke-linejoin: miter"/>
     <use xlink:href="#mf7c5cc91ee" x="322.147304" y="539.497855" style="fill: #d62728; stroke: #d62728; stroke-linejoin: miter"/>
     <use xlink:href="#mf7c5cc91ee" x="390.930046" y="522.875431" style="fill: #d62728; stroke: #d62728; stroke-linejoin: miter"/>
     <use xlink:href="#mf7c5cc91ee" x="459.712789" y="499.279118" style="fill: #d62728; stroke: #d62728; stroke-linejoin: miter"/>
     <use xlink:href="#mf7c5cc91ee" x="528.495532" y="469.362717" style="fill: #d62728; stroke: #d62728; stroke-linejoin: miter"/>
     <use xlink:href="#mf7c5cc91ee" x="597.278274" y="433.50266" style="fill: #d62728; stroke: #d62728; stroke-linejoin: miter"/>
     <use xlink:href="#mf7c5cc91ee" x="666.061017" y="391.183831" style="fill: #d62728; stroke: #d62728; stroke-linejoin: miter"/>
     <use xlink:href="#mf7c5cc91ee" x="734.84376" y="342.544914" style="fill: #d62728; stroke: #d62728; stroke-linejoin: miter"/>
     <use xlink:href="#mf7c5cc91ee" x="803.626502" y="287.050981" style="fill: #d62728; stroke: #d62728; stroke-linejoin: miter"/>
     <use xlink:href="#mf7c5cc91ee" x="872.409245" y="225.771889" style="fill: #d62728; stroke: #d62728; stroke-linejoin: miter"/>
     <use xlink:href="#mf7c5cc91ee" x="941.191988" y="158.509517" style="fill: #d62728; stroke: #d62728; stroke-linejoin: miter"/>
    </g>
   </g>
   <g id="line2d_47">
    <path d="M 184.581818 554.020188 
L 198.338367 553.940939 
L 212.094915 553.802254 
L 225.851464 553.623944 
L 239.608012 553.386198 
L 253.364561 553.108827 
L 267.121109 552.791832 
L 280.877658 552.415401 
L 294.634206 551.979533 
L 308.390755 551.523852 
L 322.147304 550.988923 
L 335.903852 550.434182 
L 349.660401 549.78038 
L 363.416949 549.027517 
L 377.173498 548.135969 
L 390.930046 547.105735 
L 404.686595 545.897192 
L 418.443143 544.70846 
L 432.199692 543.143298 
L 445.95624 541.835693 
L 459.712789 540.349779 
L 473.469337 538.943114 
L 487.225886 537.278891 
L 500.982435 535.73354 
L 514.738983 533.930631 
L 528.495532 532.464529 
L 542.25208 530.66162 
L 556.008629 528.224722 
L 569.765177 526.75862 
L 583.521726 524.777401 
L 597.278274 522.558436 
L 611.034823 520.656466 
L 624.791371 518.675248 
L 638.54792 516.139288 
L 652.304468 513.999572 
L 666.061017 509.482394 
L 679.817565 509.08615 
L 693.574114 506.570002 
L 707.330663 504.01423 
L 721.087211 500.943341 
L 734.84376 493.236401 
L 748.600308 495.732736 
L 762.356857 490.462695 
L 776.113405 488.937157 
L 789.869954 485.866268 
L 803.626502 479.011251 
L 817.383051 475.92055 
L 831.139599 474.315763 
L 844.896148 473.721398 
L 858.652696 469.323092 
L 872.409245 459.674558 
L 886.165794 462.131269 
L 899.922342 457.079161 
L 913.678891 449.253348 
L 927.435439 452.740293 
L 941.191988 448.579734 
L 954.948536 436.771671 
L 968.705085 437.504722 
L 982.461633 436.514112 
L 996.218182 424.329618 
" clip-path="url(#p29b5617740)" style="fill: none; stroke: #9467bd; stroke-linecap: square"/>
    <defs>
     <path id="mc40a898c93" d="M 3 0 
L -3 -3 
L -3 3 
z
" style="stroke: #9467bd; stroke-linejoin: miter"/>
    </defs>
    <g clip-path="url(#p29b5617740)">
     <use xlink:href="#mc40a898c93" x="184.581818" y="554.020188" style="fill: #9467bd; stroke: #9467bd; stroke-linejoin: miter"/>
     <use xlink:href="#mc40a898c93" x="253.364561" y="553.108827" style="fill: #9467bd; stroke: #9467bd; stroke-linejoin: miter"/>
     <use xlink:href="#mc40a898c93" x="322.147304" y="550.988923" style="fill: #9467bd; stroke: #9467bd; stroke-linejoin: miter"/>
     <use xlink:href="#mc40a898c93" x="390.930046" y="547.105735" style="fill: #9467bd; stroke: #9467bd; stroke-linejoin: miter"/>
     <use xlink:href="#mc40a898c93" x="459.712789" y="540.349779" style="fill: #9467bd; stroke: #9467bd; stroke-linejoin: miter"/>
     <use xlink:href="#mc40a898c93" x="528.495532" y="532.464529" style="fill: #9467bd; stroke: #9467bd; stroke-linejoin: miter"/>
     <use xlink:href="#mc40a898c93" x="597.278274" y="522.558436" style="fill: #9467bd; stroke: #9467bd; stroke-linejoin: miter"/>
     <use xlink:href="#mc40a898c93" x="666.061017" y="509.482394" style="fill: #9467bd; stroke: #9467bd; stroke-linejoin: miter"/>
     <use xlink:href="#mc40a898c93" x="734.84376" y="493.236401" style="fill: #9467bd; stroke: #9467bd; stroke-linejoin: miter"/>
     <use xlink:href="#mc40a898c93" x="803.626502" y="479.011251" style="fill: #9467bd; stroke: #9467bd; stroke-linejoin: miter"/>
     <use xlink:href="#mc40a898c93" x="872.409245" y="459.674558" style="fill: #9467bd; stroke: #9467bd; stroke-linejoin: miter"/>
     <use xlink:href="#mc40a898c93" x="941.191988" y="448.579734" style="fill: #9467bd; stroke: #9467bd; stroke-linejoin: miter"/>
    </g>
   </g>
   <g id="patch_3">
    <path d="M 144 576.72 
L 144 77.76 
" style="fill: none; stroke: #000000; stroke-width: 0.8; stroke-linejoin: miter; stroke-linecap: square"/>
   </g>
   <g id="patch_4">
    <path d="M 1036.8 576.72 
L 1036.8 77.76 
" style="fill: none; stroke: #000000; stroke-width: 0.8; stroke-linejoin: miter; stroke-linecap: square"/>
   </g>
   <g id="patch_5">
    <path d="M 144 576.72 
L 1036.8 576.72 
" style="fill: none; stroke: #000000; stroke-width: 0.8; stroke-linejoin: miter; stroke-linecap: square"/>
   </g>
   <g id="patch_6">
    <path d="M 144 77.76 
L 1036.8 77.76 
" style="fill: none; stroke: #000000; stroke-width: 0.8; stroke-linejoin: miter; stroke-linecap: square"/>
   </g>
   <g id="text_24">
    <!-- Кусочно линейный график -->
    <g transform="translate(505.5675 71.76)scale(0.12 -0.12)">
     <defs>
      <path id="DejaVuSans-443" d="M 2059 -325 
Q 1816 -950 1584 -1140 
Q 1353 -1331 966 -1331 
L 506 -1331 
L 506 -850 
L 844 -850 
Q 1081 -850 1212 -737 
Q 1344 -625 1503 -206 
L 1606 56 
L 191 3500 
L 800 3500 
L 1894 763 
L 2988 3500 
L 3597 3500 
L 2059 -325 
z
" transform="scale(0.015625)"/>
      <path id="DejaVuSans-43d" d="M 581 3500 
L 1159 3500 
L 1159 2072 
L 3025 2072 
L 3025 3500 
L 3603 3500 
L 3603 0 
L 3025 0 
L 3025 1613 
L 1159 1613 
L 1159 0 
L 581 0 
L 581 3500 
z
" transform="scale(0.015625)"/>
      <path id="DejaVuSans-439" d="M 3578 3500 
L 3578 0 
L 3006 0 
L 3006 2809 
L 1319 0 
L 581 0 
L 581 3500 
L 1153 3500 
L 1153 697 
L 2838 3500 
L 3578 3500 
z
M 1102 4833 
L 1471 4833 
Q 1505 4599 1656 4481 
Q 1808 4364 2080 4364 
Q 2349 4364 2499 4480 
Q 2649 4596 2689 4833 
L 3058 4833 
Q 3027 4386 2780 4161 
Q 2533 3936 2080 3936 
Q 1627 3936 1380 4161 
Q 1133 4386 1102 4833 
z
" transform="scale(0.015625)"/>
      <path id="DejaVuSans-433" d="M 581 0 
L 581 3500 
L 3050 3500 
L 3050 3041 
L 1159 3041 
L 1159 0 
L 581 0 
z
" transform="scale(0.015625)"/>
      <path id="DejaVuSans-444" d="M 947 1747 
Q 947 1013 1173 702 
Q 1400 391 1784 391 
Q 2091 391 2447 916 
L 2447 2578 
Q 2091 3103 1784 3103 
Q 1400 3103 1173 2792 
Q 947 2481 947 1747 
z
M 2447 -1331 
L 2447 447 
Q 2269 153 2064 31 
Q 1859 -91 1600 -91 
Q 1078 -91 714 392 
Q 350 875 350 1734 
Q 350 2594 714 3089 
Q 1078 3584 1600 3584 
Q 1859 3584 2064 3465 
Q 2269 3347 2447 3053 
L 2447 4666 
L 3025 4666 
L 3025 3053 
Q 3203 3347 3408 3465 
Q 3613 3584 3872 3584 
Q 4394 3584 4758 3089 
Q 5122 2594 5122 1734 
Q 5122 875 4758 392 
Q 4394 -91 3872 -91 
Q 3613 -91 3408 31 
Q 3203 153 3025 447 
L 3025 -1331 
L 2447 -1331 
z
M 4525 1747 
Q 4525 2481 4298 2792 
Q 4072 3103 3688 3103 
Q 3381 3103 3025 2578 
L 3025 916 
Q 3381 391 3688 391 
Q 4072 391 4298 702 
Q 4525 1013 4525 1747 
z
" transform="scale(0.015625)"/>
     </defs>
     <use xlink:href="#DejaVuSans-41a"/>
     <use xlink:href="#DejaVuSans-443" x="70.996094"/>
     <use xlink:href="#DejaVuSans-441" x="130.175781"/>
     <use xlink:href="#DejaVuSans-43e" x="185.15625"/>
     <use xlink:href="#DejaVuSans-447" x="246.337891"/>
     <use xlink:href="#DejaVuSans-43d" x="305.419922"/>
     <use xlink:href="#DejaVuSans-43e" x="370.800781"/>
     <use xlink:href="#DejaVuSans-20" x="431.982422"/>
     <use xlink:href="#DejaVuSans-43b" x="463.769531"/>
     <use xlink:href="#DejaVuSans-438" x="527.685547"/>
     <use xlink:href="#DejaVuSans-43d" x="592.675781"/>
     <use xlink:href="#DejaVuSans-435" x="658.056641"/>
     <use xlink:href="#DejaVuSans-439" x="719.580078"/>
     <use xlink:href="#DejaVuSans-43d" x="784.570312"/>
     <use xlink:href="#DejaVuSans-44b" x="849.951172"/>
     <use xlink:href="#DejaVuSans-439" x="928.90625"/>
     <use xlink:href="#DejaVuSans-20" x="993.896484"/>
     <use xlink:href="#DejaVuSans-433" x="1025.683594"/>
     <use xlink:href="#DejaVuSans-440" x="1078.222656"/>
     <use xlink:href="#DejaVuSans-430" x="1141.699219"/>
     <use xlink:href="#DejaVuSans-444" x="1202.978516"/>
     <use xlink:href="#DejaVuSans-438" x="1288.476562"/>
     <use xlink:href="#DejaVuSans-43a" x="1353.466797"/>
    </g>
   </g>
   <g id="legend_1">
    <g id="patch_7">
     <path d="M 151 159.150625 
L 197.234375 159.150625 
Q 199.234375 159.150625 199.234375 157.150625 
L 199.234375 84.76 
Q 199.234375 82.76 197.234375 82.76 
L 151 82.76 
Q 149 82.76 149 84.76 
L 149 157.150625 
Q 149 159.150625 151 159.150625 
z
" style="fill: #ffffff; opacity: 0.8; stroke: #cccccc; stroke-linejoin: miter"/>
    </g>
    <g id="line2d_48">
     <path d="M 153 90.858438 
L 163 90.858438 
L 173 90.858438 
" style="fill: none; stroke: #1f77b4; stroke-linecap: square"/>
     <g>
      <use xlink:href="#m38ced6698d" x="163" y="90.858438" style="fill: #1f77b4; stroke: #1f77b4"/>
     </g>
    </g>
    <g id="text_25">
     <!-- O1 -->
     <g transform="translate(181 94.358438)scale(0.1 -0.1)">
      <defs>
       <path id="DejaVuSans-4f" d="M 2522 4238 
Q 1834 4238 1429 3725 
Q 1025 3213 1025 2328 
Q 1025 1447 1429 934 
Q 1834 422 2522 422 
Q 3209 422 3611 934 
Q 4013 1447 4013 2328 
Q 4013 3213 3611 3725 
Q 3209 4238 2522 4238 
z
M 2522 4750 
Q 3503 4750 4090 4092 
Q 4678 3434 4678 2328 
Q 4678 1225 4090 567 
Q 3503 -91 2522 -91 
Q 1538 -91 948 565 
Q 359 1222 359 2328 
Q 359 3434 948 4092 
Q 1538 4750 2522 4750 
z
" transform="scale(0.015625)"/>
      </defs>
      <use xlink:href="#DejaVuSans-4f"/>
      <use xlink:href="#DejaVuSans-31" x="78.710938"/>
     </g>
    </g>
    <g id="line2d_49">
     <path d="M 153 105.536563 
L 163 105.536563 
L 173 105.536563 
" style="fill: none; stroke: #ff7f0e; stroke-linecap: square"/>
     <g>
      <use xlink:href="#me66b819a3f" x="163" y="105.536563" style="fill: #ff7f0e; stroke: #ff7f0e; stroke-linejoin: miter"/>
     </g>
    </g>
    <g id="text_26">
     <!-- O2 -->
     <g transform="translate(181 109.036563)scale(0.1 -0.1)">
      <use xlink:href="#DejaVuSans-4f"/>
      <use xlink:href="#DejaVuSans-32" x="78.710938"/>
     </g>
    </g>
    <g id="line2d_50">
     <path d="M 153 120.214688 
L 163 120.214688 
L 173 120.214688 
" style="fill: none; stroke: #2ca02c; stroke-linecap: square"/>
     <g>
      <use xlink:href="#m0e4dbdd5dc" x="163" y="120.214688" style="fill: #2ca02c; stroke: #2ca02c; stroke-linejoin: miter"/>
     </g>
    </g>
    <g id="text_27">
     <!-- O3 -->
     <g transform="translate(181 123.714688)scale(0.1 -0.1)">
      <use xlink:href="#DejaVuSans-4f"/>
      <use xlink:href="#DejaVuSans-33" x="78.710938"/>
     </g>
    </g>
    <g id="line2d_51">
     <path d="M 153 134.892813 
L 163 134.892813 
L 173 134.892813 
" style="fill: none; stroke: #d62728; stroke-linecap: square"/>
     <g>
      <use xlink:href="#mf7c5cc91ee" x="163" y="134.892813" style="fill: #d62728; stroke: #d62728; stroke-linejoin: miter"/>
     </g>
    </g>
    <g id="text_28">
     <!-- O0 -->
     <g transform="translate(181 138.392813)scale(0.1 -0.1)">
      <use xlink:href="#DejaVuSans-4f"/>
      <use xlink:href="#DejaVuSans-30" x="78.710938"/>
     </g>
    </g>
    <g id="line2d_52">
     <path d="M 153 149.570938 
L 163 149.570938 
L 173 149.570938 
" style="fill: none; stroke: #9467bd; stroke-linecap: square"/>
     <g>
      <use xlink:href="#mc40a898c93" x="163" y="149.570938" style="fill: #9467bd; stroke: #9467bd; stroke-linejoin: miter"/>
     </g>
    </g>
    <g id="text_29">
     <!-- Os -->
     <g transform="translate(181 153.070938)scale(0.1 -0.1)">
      <defs>
       <path id="DejaVuSans-73" d="M 2834 3397 
L 2834 2853 
Q 2591 2978 2328 3040 
Q 2066 3103 1784 3103 
Q 1356 3103 1142 2972 
Q 928 2841 928 2578 
Q 928 2378 1081 2264 
Q 1234 2150 1697 2047 
L 1894 2003 
Q 2506 1872 2764 1633 
Q 3022 1394 3022 966 
Q 3022 478 2636 193 
Q 2250 -91 1575 -91 
Q 1294 -91 989 -36 
Q 684 19 347 128 
L 347 722 
Q 666 556 975 473 
Q 1284 391 1588 391 
Q 1994 391 2212 530 
Q 2431 669 2431 922 
Q 2431 1156 2273 1281 
Q 2116 1406 1581 1522 
L 1381 1569 
Q 847 1681 609 1914 
Q 372 2147 372 2553 
Q 372 3047 722 3315 
Q 1072 3584 1716 3584 
Q 2034 3584 2315 3537 
Q 2597 3491 2834 3397 
z
" transform="scale(0.015625)"/>
      </defs>
      <use xlink:href="#DejaVuSans-4f"/>
      <use xlink:href="#DejaVuSans-73" x="78.710938"/>
     </g>
    </g>
   </g>
  </g>
 </g>
 <defs>
  <clipPath id="p29b5617740">
   <rect x="144" y="77.76" width="892.8" height="498.96"/>
  </clipPath>
 </defs>
</svg>
